<svg version="1.2" xmlns="http://www.w3.org/2000/svg" viewBox="0 0 567 567" width="567" height="567">
	<style>
		.s0 { fill: #298ac3 } 
		.s1 { fill: #56aed6 } 
		.s2 { fill: #1e3a59 } 
		.s3 { fill: #1d3a57 } 
		.s4 { fill: #298ac4 } 
		.s5 { fill: #2c88c1 } 
		.s6 { fill: #2788c1 } 
	</style>
	<g>
		<path fill-rule="evenodd" class="s0" d="m206.43 263.51c-16.72-7.89-34.33-12.47-52.77-13.22-34.49-1.4-63.95 10.91-89.14 34.02-1.84 1.69-2.96 4.14-5.53 5.55-1.53-14.53 1.2-27.94 4.94-41.09 13.25-46.52 40.72-83.87 75.81-116.16 21.32-19.48 41.23-31.82 60.12-45.63-2.97 6.86-5.67 15.35-6.68 19.64-6.45 27.52 1.82 51.39 14.2 75.39 28.38 55 74.93 85.23 135.6 92.92 34.44 4.37 67.43-1.73 95.76-23.8 21.01-16.36 32.17-44.9 33.18-71.39 3.18 5.09 2.22 3.44 4.72 7.69 10.07 17.13 18.57 34.98 23.99 54.15 2.79 9.86 5.55 19.77 6.24 30.09-0.64 9.39-6.74 15.81-12.29 22.5-15.88 19.14-37.65 26.27-61.17 29.17-32.75 4.03-64.53-1.94-96.09-10.08-42.87-11.05-82.34-30.78-122.97-47.56-2.84-0.68-5.7-1.79-7.92-2.19z"/>
		<path fill-rule="evenodd" class="s1" d="m471.92 179.74c4.38 11.36-0.09 26.39-4.24 36.16-12.94 30.4-38.46 47.47-69.44 56.08-27.32 7.58-55.34 5.66-82.16-1.38-31.36-8.23-59.06-24.97-82.27-47.81-24.14-23.76-40.52-63.51-42.35-86.34-1.83-22.83 1.28-33.57 8.4-49.47 18.19-12.09 39.18-22.42 60.09-31.09 17.41-7.22 35.52-12.14 54.18-14.88 4.5-0.66 9.1-0.64 14.95-1.01-4.02 6.17-6.37 7.5-9.58 12.63-28.86 46.23-26.04 102.56 10.96 143.62 28.66 31.81 77.92 41.83 112.14 24.83 12.71-6.32 19.25-16.11 25.4-29.25 0.98-2.11 2.97-8.17 3.92-12.09z"/>
		<path fill-rule="evenodd" class="s2" d="m460.65 437.12c-13.73 19.8-31.5 35.46-51.44 48.98-100.59 68.21-240.02 45.18-310.79-51.64-6.21-8.5-11.27-17.84-17-26.7-2.56-3.96-1.86-6.88 1.53-10.08 16.54-15.62 36.28-21.86 58.69-20.79 25.17 1.19 47.42 11.03 68.91 23.18 31.36 17.76 62.05 36.82 96.67 48.07 49.02 15.93 97.23 15.29 144.51-6.51 3.03-1.4 5.95-3 8.92-4.51z"/>
		<path fill-rule="evenodd" class="s0" d="m491.5 383.35c-5.85 14.1-14.94 23.3-25.79 30.76-39.27 27.01-82.49 32.79-128.48 23.39-35.94-7.34-67.7-24.1-98.74-42.79-23.58-14.22-47.12-28.81-74.59-34.71-30.9-6.63-60.03-4.22-85.04 17.59-2.49 2.16-4.31 5.08-7.18 8.54-8.54-18.56-12.47-36.52-14.63-54.94-0.44-3.69 2.26-6.16 4.34-8.75 33.51-41.76 84.17-52.76 135.9-29.48 28.38 12.77 53.3 31.16 78.56 48.94 32.54 22.91 65.64 44.63 104.33 56.07 24.02 7.11 48.21 10.68 73.09 4.62 13.67-3.33 25.57-10.15 38.23-19.24z"/>
		<path fill-rule="evenodd" class="s3" d="m206.43 263.51c4.85 0.14 12.47 3.75 14.98 4.76 28.34 11.4 48.74 20.57 77.3 31.38 35 13.23 71.13 22.38 108.76 23.3 25.46 0.63 50.31-2.65 71.97-17.95 11.84-8.36 19.67-19.99 26.32-32.55 3.11 18.74 3.66 37.47-1.84 55.85-8.07 26.92-37.48 46.86-70.15 47.79-33.35 0.96-63.83-9.03-92.96-24.47-29.73-15.74-56.01-36.57-83.48-55.66-16.7-11.6-32.41-23.79-50.9-32.45z"/>
		<path fill-rule="evenodd" class="s4" d="m389.6 111.88c-17.32 0-31.32-13.86-31.32-31 0-17.15 14-31 31.32-31 17.32 0 31.32 13.85 31.32 31 0 17.14-14 31-31.32 31z"/>
		<path fill-rule="evenodd" class="s5" d="m341.51 154.08c0.09-9.97 8.46-17.8 18.69-17.48 9.02 0.28 16.78 8.17 16.7 16.96-0.1 9.7-8.94 18.42-18.42 18.16-9.28-0.25-17.06-8.33-16.97-17.64z"/>
		<path fill-rule="evenodd" class="s6" d="m426.05 206.32c-9.9 0-17.91-7.69-17.91-17.21 0-9.51 8.01-17.21 17.91-17.21 9.9 0 17.9 7.7 17.9 17.21 0 9.52-8 17.21-17.9 17.21z"/>
	</g>
	<path class="s1" d=""/>
</svg>