<?xml version="1.0" encoding="utf-8"?>
<!-- Generator: Adobe Illustrator 16.0.0, SVG Export Plug-In . SVG Version: 6.00 Build 0)  -->
<!DOCTYPE svg PUBLIC "-//W3C//DTD SVG 1.1//EN" "http://www.w3.org/Graphics/SVG/1.1/DTD/svg11.dtd">
<svg version="1.1" id="Layer_1" xmlns="http://www.w3.org/2000/svg" xmlns:xlink="http://www.w3.org/1999/xlink" x="0px" y="0px"
	 width="566.93px" height="566.93px" viewBox="0 0 566.93 566.93" enable-background="new 0 0 566.93 566.93" xml:space="preserve">
<g>
	<path fill-rule="evenodd" clip-rule="evenodd" fill="#298AC3" d="M238.232,217.947c-9.854-4.652-20.239-7.352-31.105-7.794
		c-20.338-0.828-37.701,6.431-52.555,20.058c-1.081,0.992-1.742,2.439-3.261,3.269c-0.901-8.567,0.708-16.469,2.916-24.221
		c7.808-27.428,24.003-49.449,44.692-68.484c12.568-11.484,24.303-18.755,35.443-26.9c-1.753,4.048-3.347,9.048-3.94,11.579
		c-3.805,16.223,1.072,30.294,8.374,44.448c16.729,32.422,44.17,50.241,79.938,54.779c20.305,2.575,39.752-1.021,56.453-14.031
		c12.387-9.646,18.965-26.47,19.563-42.087c1.875,3,1.305,2.025,2.781,4.534c5.938,10.094,10.949,20.622,14.143,31.921
		c1.643,5.813,3.27,11.657,3.678,17.738c-0.377,5.534-3.971,9.32-7.244,13.264c-9.365,11.284-22.199,15.491-36.064,17.198
		c-19.303,2.377-38.039-1.144-56.646-5.941c-25.271-6.516-48.542-18.15-72.497-28.04
		C241.228,218.834,239.544,218.181,238.232,217.947z"/>
	<path fill-rule="evenodd" clip-rule="evenodd" fill="#56AED6" d="M394.75,168.563c2.578,6.696-0.053,15.558-2.5,21.313
		c-7.627,17.924-22.673,27.989-40.938,33.063c-16.105,4.471-32.627,3.339-48.438-0.813c-18.487-4.854-34.817-14.723-48.5-28.188
		c-14.232-14.005-23.884-37.437-24.963-50.896s0.754-19.792,4.95-29.168c10.721-7.124,23.099-13.217,35.425-18.327
		c10.265-4.256,20.942-7.155,31.94-8.772c2.654-0.391,5.367-0.376,8.812-0.595c-2.37,3.639-3.754,4.42-5.644,7.446
		c-17.015,27.255-15.351,60.461,6.461,84.668c16.896,18.751,45.932,24.659,66.108,14.638c7.494-3.723,11.348-9.494,14.973-17.244
		C393.018,174.447,394.188,170.875,394.75,168.563z"/>
	<path fill-rule="evenodd" clip-rule="evenodd" fill="#1E3A59" d="M388.107,320.296c-8.097,11.674-18.574,20.906-30.326,28.873
		c-59.302,40.211-141.502,26.637-183.221-30.441c-3.663-5.01-6.646-10.517-10.021-15.742c-1.509-2.332-1.1-4.054,0.902-5.945
		c9.748-9.208,21.388-12.885,34.597-12.255c14.841,0.705,27.958,6.503,40.622,13.668c18.489,10.467,36.584,21.703,56.994,28.337
		c28.9,9.391,57.318,9.016,85.191-3.839C384.63,322.13,386.355,321.183,388.107,320.296z"/>
	<path fill-rule="evenodd" clip-rule="evenodd" fill="#298AC3" d="M406.293,288.598c-3.448,8.31-8.812,13.731-15.207,18.129
		c-23.152,15.925-48.628,19.331-75.74,13.793c-21.188-4.329-39.915-14.206-58.21-25.229c-13.905-8.381-27.779-16.98-43.975-20.458
		c-18.215-3.909-35.39-2.491-50.136,10.369c-1.463,1.273-2.539,2.992-4.233,5.031c-5.032-10.939-7.35-21.529-8.625-32.39
		c-0.255-2.173,1.335-3.626,2.563-5.156c19.751-24.617,49.616-31.102,80.113-17.38c16.735,7.532,31.426,18.37,46.315,28.853
		c19.183,13.506,38.697,26.313,61.507,33.056c14.163,4.189,28.421,6.295,43.088,2.723
		C391.813,297.978,398.826,293.956,406.293,288.598z"/>
	<path fill-rule="evenodd" clip-rule="evenodd" fill="#1D3A57" d="M238.232,217.947c2.863,0.083,7.354,2.209,8.831,2.803
		c16.711,6.722,28.735,12.13,45.575,18.501c20.629,7.803,41.93,13.194,64.113,13.74c15.011,0.37,29.664-1.567,42.433-10.587
		c6.979-4.929,11.595-11.78,15.514-19.188c1.835,11.048,2.158,22.093-1.086,32.924c-4.755,15.871-22.093,27.625-41.352,28.176
		c-19.663,0.563-37.632-5.325-54.806-14.424c-17.523-9.282-33.018-21.563-49.212-32.814
		C258.396,230.236,249.135,223.052,238.232,217.947z"/>
	<path fill-rule="evenodd" clip-rule="evenodd" fill="#1F3A58" d="M386.174,438.188c0-12.314,0.1-24.633-0.076-36.945
		c-0.042-3.029,0.848-3.813,3.806-3.787c14.596,0.131,29.194,0.129,43.787-0.043c3.192-0.039,4.108,0.889,4.108,4.084
		c0.003,9.188,0.15,9.154-8.987,9.125c-8.362-0.023-16.727,0.148-25.088,0.008c-2.888-0.051-4.104,0.656-3.953,3.777
		c0.241,5.006,0.207,10.035,0.042,15.047c-0.079,2.465,0.815,3.076,3.146,3.035c8.513-0.135,17.031,0.057,25.541-0.168
		c3.637-0.096,5.081,0.801,4.89,4.789c-0.414,8.709-0.198,8.721-9.089,8.721c-6.842,0-13.689,0.146-20.524-0.088
		c-3.08-0.107-4.229,0.629-4.157,3.92c0.184,8.51-0.138,17.031,0.036,25.541c0.063,3.035-0.905,3.775-3.829,3.787
		c-9.607,0.043-9.609,0.164-9.609-9.33c-0.004-10.49-0.001-20.98-0.001-31.473C386.201,438.188,386.186,438.188,386.174,438.188z"/>
	<path fill-rule="evenodd" clip-rule="evenodd" fill="#203C59" d="M481.7,424.983c12.007-8.584,23.759-9.287,32.634-2.738
		c6.013,4.436,8.386,10.727,8.522,17.797c0.229,11.85-0.032,23.707,0.02,35.563c0.011,2.459-0.696,3.385-3.34,3.49
		c-10.018,0.404-10.049,0.51-10.133-9.264c-0.069-8.359-0.009-16.717-0.061-25.078c-0.053-9.08-4.029-13.732-11.934-14.061
		c-8.254-0.342-14.461,4.859-14.804,13.287c-0.414,10.166-0.308,20.363-0.085,30.541c0.085,3.834-1.146,4.818-4.882,4.723
		c-8.854-0.23-8.835-0.033-8.844-8.986c-0.015-15.502,0.038-31.004-0.171-46.504c-0.047-3.564,0.91-5.086,4.577-4.508
		c1.338,0.209,2.74,0.156,4.098,0.027C480.89,418.937,483.618,419.394,481.7,424.983z"/>
	<path fill-rule="evenodd" clip-rule="evenodd" fill="#203B59" d="M335.317,425.12c6.798-6.203,13.805-8.279,21.73-7.051
		c11.495,1.779,18.704,9.225,19.115,20.848c0.432,12.291,0.072,24.607,0.144,36.912c0.011,2.295-0.743,3.113-3.14,3.246
		c-10.408,0.576-10.422,0.662-10.464-9.584c-0.036-8.813,0.023-17.625-0.063-26.436c-0.074-7.625-4.294-12.123-11.513-12.479
		c-8.003-0.393-14.489,4.684-15.065,12c-0.813,10.316-0.181,20.654-0.038,30.975c0.058,4.211-0.916,5.889-5.526,5.658
		c-8.145-0.406-8.147-0.115-8.146-8.119c0.004-15.951,0.074-31.902-0.082-47.854c-0.029-3.145,0.758-4.541,4.027-4.045
		c1.192,0.182,2.435,0.189,3.638,0.078C333.516,418.942,336.814,418.862,335.317,425.12z"/>
	<path fill-rule="evenodd" clip-rule="evenodd" fill="#1F3C5B" d="M163.897,417.411c10,0.201,17.421,3.326,23.61,9.633
		c1.891,1.932,1.868,3.176-0.105,4.734c-0.592,0.469-1.142,1.01-1.628,1.588c-3.104,3.672-5.645,4.527-10.067,0.785
		c-7.704-6.52-18.478-4.709-25.163,3.129c-5.998,7.031-5.485,18.035,1.159,24.883c6.829,7.037,17.203,7.354,25.112,0.928
		c1.276-1.035,2.348-3.646,4.375-2.387c3.048,1.898,6.271,3.842,8.273,6.951c0.714,1.107-0.808,2.123-1.593,2.996
		c-8.473,9.416-23.562,12.645-35.568,7.637c-12.436-5.189-20.058-17.355-19.234-30.701c0.836-13.551,10.136-25.49,22.629-28.92
		C158.765,417.823,161.897,417.151,163.897,417.411z"/>
	<path fill-rule="evenodd" clip-rule="evenodd" fill="#298AC4" d="M346.237,128.553c-10.396-0.074-18.578-8.251-18.48-18.47
		c0.095-10.04,8.307-18.074,18.484-18.081c10.306-0.005,18.491,8.228,18.443,18.555C364.64,120.525,356.335,128.626,346.237,128.553
		z"/>
	<path fill-rule="evenodd" clip-rule="evenodd" fill="#213C58" d="M458.511,449.335c0,8.805-0.063,17.615,0.046,26.422
		c0.027,2.219-0.37,3.133-2.91,3.242c-10.871,0.477-10.862,0.576-10.867-10.309c-0.006-15.035,0.067-30.07-0.098-45.102
		c-0.032-3.152,0.379-4.518,4.071-4.432c9.722,0.225,9.728,0.023,9.732,9.676c0.002,6.834,0,13.668,0,20.502
		C458.494,449.335,458.502,449.335,458.511,449.335z"/>
	<path fill-rule="evenodd" clip-rule="evenodd" fill="#2C88C1" d="M317.867,153.435c0.054-5.881,4.988-10.497,11.021-10.309
		c5.315,0.166,9.892,4.817,9.842,10.001c-0.056,5.72-5.267,10.859-10.857,10.708C322.4,163.688,317.817,158.923,317.867,153.435z"/>
	<path fill-rule="evenodd" clip-rule="evenodd" fill="#2788C1" d="M367.454,184.23c-6.015-0.09-10.494-4.569-10.299-10.3
		c0.192-5.659,4.928-10.02,10.847-9.988c5.769,0.031,10.301,4.651,10.258,10.457C378.218,180.061,373.533,184.322,367.454,184.23z"
		/>
	<path fill-rule="evenodd" clip-rule="evenodd" fill="#22415E" d="M452.046,396.456c4.745-0.066,7.632,2.564,7.689,7.016
		c0.062,4.797-3.534,8.605-8.092,8.57c-4.043-0.031-7.461-3.42-7.608-7.543C443.876,400.034,447.378,396.519,452.046,396.456z"/>
	<path fill="#1E3B58" d="M85.939,396.653c-23.526-0.16-41.879,17.889-41.96,41.266c-0.084,24.307,17.724,42.73,41.393,42.83
		c23.619,0.096,41.583-18.068,41.626-42.09C127.041,415.694,108.58,396.808,85.939,396.653z M85.754,467.144
		c-15.595,0.09-27.833-12.246-27.924-28.15c-0.091-15.949,11.677-28.357,27-28.461c15.768-0.109,28.349,12.484,28.309,28.332
		C113.1,454.46,100.9,467.058,85.754,467.144z"/>
	<path fill="#203C5A" d="M227.553,417.755c-15.6-2.168-30.424,8.785-33.601,24.83c-2.917,14.729,3.155,27.906,15.917,34.541
		c12.438,6.467,28.887,3.695,38.628-6.568c0.83-0.873,2.765-1.859,1.323-3.277c-2.474-2.436-5.066-5.006-8.107-6.514
		c-1.947-0.967-3.33,2.084-4.998,3.256c-9.952,6.99-23.095,4.363-28.321-5.727c-1.5-2.896-1.945-4.586,2.482-4.367
		c6.37,0.316,12.767,0.082,19.152,0.082c0-0.012,0-0.027,0-0.041c6.843,0,13.685-0.037,20.525,0.021
		c2.248,0.02,3.548-0.297,3.707-3.152C255.203,433.923,244.115,420.06,227.553,417.755z M236.231,443.218
		c-4.225-0.238-8.474-0.059-12.713-0.059c0-0.016,0-0.029,0-0.043c-4.391,0-8.783-0.055-13.171,0.023
		c-1.88,0.035-2.911-0.055-2.024-2.463c2.091-5.67,7.937-10.039,14.235-10.32c7.789-0.346,13.496,2.939,16.323,9.08
		C240.314,442.552,239.546,443.403,236.231,443.218z"/>
	<path fill="#203C5A" d="M312.088,476.509c-0.123-12.451,0.123-24.922-0.519-37.348c-0.479-9.291-5.784-15.99-14.439-19.309
		c-9.825-3.766-19.677-3.09-29.063,1.818c-6.519,3.408-6.452,3.885-2.627,10.16c1.691,2.775,3.16,3.463,6.074,1.652
		c4.807-2.988,10.229-3.676,15.798-3.145c6.072,0.578,10.495,4.916,10.868,10.355c0.178,2.586-0.478,3.248-3.052,2.221
		c-5.279-2.107-10.813-2.936-16.51-2.453c-10.255,0.869-18.226,7.9-19.164,16.924c-1.119,10.762,4.192,18.92,14.801,22.063
		c8.59,2.545,16.518,0.938,23.5-5.07c1.563,1.555-0.438,4.586,2.504,4.57c3.889-0.018,7.852,0.629,11.639-0.75
		C312.138,478.11,312.094,477.093,312.088,476.509z M296.828,462.374c-3.533,5.768-12.805,8.492-18.902,5.541
		c-3.509-1.697-5.207-4.502-4.983-8.41c0.223-3.91,2.183-6.611,5.948-7.697c2.159-0.625,4.447-0.801,5.874-1.045
		c3.412,0.238,5.956,0.422,8.419,1.35C298.313,454.05,299.665,457.743,296.828,462.374z"/>
</g>
<path fill-rule="evenodd" clip-rule="evenodd" fill="#56AED6" d="M232.595,117.606"/>
</svg>
